<?xml version="1.0" encoding="UTF-8"?>
<!DOCTYPE svg PUBLIC "-//W3C//DTD SVG 1.1//EN" "http://www.w3.org/Graphics/SVG/1.1/DTD/svg11.dtd">
<!-- Creator: Olajide Olamilekan -->
<svg xmlns="http://www.w3.org/2000/svg" xml:space="preserve" width="1.48445in" height="0.696882in" version="1.1"  fill="currentColor" style="shape-rendering:geometricPrecision; text-rendering:geometricPrecision; image-rendering:optimizeQuality; fill-rule:evenodd; clip-rule:evenodd"
viewBox="0 0 1484.45 696.88"
 xmlns:xlink="http://www.w3.org/1999/xlink"
 xmlns:xodm="http://www.corel.com/coreldraw/odm/2003">
 <defs>
  <style type="text/css">
   <![CDATA[
    .fil0 {fill:#583b26}
   ]]>
  </style>
 </defs>
 <g id="Layer_x0020_1">
  <metadata id="CorelCorpID_0Corel-Layer"/>
  <path class="fil0" d="M926.07 451.64c1.11,-15.63 6.52,-28.73 11.95,-41.89 6.26,-15.17 12.2,-19.85 19.37,-30.55 8.16,-12.19 14.77,-17.78 24.26,-25.83 13.73,-11.66 22.29,-9.97 33.71,-0.97 1.46,13.76 -2.94,14.11 -17.35,31.26 -13.32,15.85 -53.18,64.78 -71.94,67.98zm-185.74 -40.17c-2.46,-8.77 6.05,-20.79 10.59,-26.83 6.37,-8.48 7.75,-14.44 14.96,-23.02 6.94,-8.27 28.15,-33.48 48.8,-28.27 7.7,37.69 -69.7,85.17 -72.75,78.56 -0.26,-0.57 -1.09,-0.22 -1.6,-0.44zm-128.63 -79.1c5.29,21.65 -16.18,42.67 -25.93,51.08 -4.48,3.87 -38.95,33.65 -47.42,28.45 -7.06,-4.33 33.91,-83.53 73.35,-79.53zm441.55 116.77c-15.54,-18.9 30.38,-120.09 38.76,-137.59 6.65,-13.88 17.67,-27.96 13.35,-45.01 -11.6,-5.95 -16.28,-2.98 -22.61,5.91 -8.03,11.28 -41.75,62.76 -49.59,63.44 -13.4,1.16 -36.49,-45.19 -88.1,20.88 -13.97,17.88 -15.65,20.98 -33.3,36.68 -38.15,33.96 -63.7,68.08 -114.95,93.08 -12.75,6.22 -40.19,18.25 -56.06,10.54 -12.89,-6.27 -16.77,-36.21 -11.8,-54.51 27.15,-12.05 37.57,-6.76 67.04,-32.91 14.74,-13.08 34.24,-35.03 41.93,-60.23 11.6,-38.1 -18.57,-51.21 -49.81,-35.64 -25.8,12.86 -37.14,27.47 -51.63,50.37 -10.82,17.12 -85.17,84.42 -104.03,98.01 -18.37,13.23 -38.81,28.13 -66.5,35.55 -49.02,13.14 -45.13,-46.06 -39.28,-53.51 4.32,-5.49 38.44,-9.86 65.37,-34.49 14.35,-13.14 34.44,-34.01 42.61,-59 20.33,-62.2 -57.89,-56.43 -100.13,11.57 -18.47,29.73 -66,88.04 -92.2,109.77 -73.44,60.91 -73.85,-41.03 -73.94,-93.19 -0.05,-29.83 7.19,-75.96 -2.48,-102.38 -12.9,-35.28 -54.01,-10.53 -68.5,2.54 -98.45,88.78 -166.11,253.35 -242.11,355.91 -4.72,6.37 -8.81,9.81 -12.94,15.08 -6.13,7.84 -5.96,11.93 -18.13,11.77 2.72,-69.86 69.14,-258.76 94.51,-319.37 35.73,-85.38 74.28,-165.48 111.17,-248.92 4.27,-9.66 16.96,-26.6 7.36,-36.87 -16.66,-13.79 -36.23,46.51 -41.14,56.97 -77.3,164.68 -159.8,342.76 -193.56,524.87 -4.98,26.87 -6.69,76.79 33.61,51.45 19.03,-11.96 31.4,-33.3 46.74,-55.43 42.47,-61.22 76.44,-128.38 116.73,-191.13 33.34,-51.93 66.13,-103.65 111.69,-144.28 8.45,-7.54 18.74,-19.11 31.33,-15.85 18.24,40.77 -24.51,226.93 54.79,231.57 52.98,3.1 86.3,-61.59 103.21,-67.6 1.43,22.23 1.17,56.11 23.23,68.89 62.31,36.11 161.86,-75.2 181.44,-85.08l-1.74 31.87c-0.02,62.12 49.05,70.92 99.32,45.72 40.89,-20.5 97.19,-71.62 101.22,-73.08 -7.02,18.2 -8.72,49.4 16.94,47.87 27.44,-1.64 75.43,-64.81 95.13,-85.43 7.2,-7.53 8.89,-14.17 21.42,-16.05 -6.63,36.26 -33.68,118.73 35.41,88.7 15.71,-6.83 35.42,-20.78 47.3,-30.64 13.44,-11.15 27.94,-24.94 42.44,-34.68 -2.63,20.06 -8.78,42.05 -12.23,63.39 -3.65,22.54 -7.03,48.53 -5.89,72.19 0.91,18.82 -0.88,58.87 25.23,44.82 17.67,-9.51 46.11,-76.92 56.34,-97.57 12.43,-25.07 26.52,-52.25 41.2,-74.94 10.18,-15.73 19.25,-30.26 31.51,-44.4 3.3,-3.8 5.98,-7.44 9.45,-10.75 31.52,-30.04 -4.14,81.35 35.4,104.15 26.29,15.16 89.71,-34.15 108.48,-50.26 13.79,-11.84 39.85,-27.52 29.99,-47.69 -15.06,-4.8 -21.07,8.4 -30.83,16.97 -9.5,8.35 -18.04,15.44 -28.67,23.3 -13.88,10.24 -45.61,40.28 -67.99,36.32 -20.35,-24.58 2.58,-97.25 -15.57,-116 -39.75,-41.07 -139.83,164.31 -154.72,195.55 -4.38,9.2 -5.44,17.25 -14.6,17.87 -10.22,-43.71 23.09,-183.02 41.8,-230.56 15.52,-39.44 44.37,-77.8 65.72,-118.45 26.47,-50.39 53.49,-101.62 74.75,-155.21 5.33,-13.44 10.33,-23.24 1.99,-33.97 -17.72,-1.15 -37.24,32.7 -45.65,46.2 -39.87,64.06 -67.51,120.5 -96.07,191.54 -9.68,24.07 -15.77,45.61 -25,69.66 -4.84,12.61 -11.28,20.24 -16.89,31.04 -9.4,18.1 10.56,17.72 -6.51,33.25 -17.73,16.13 -92,86.44 -110.79,77.42z"/>
 </g>
</svg>
