<?xml version="1.0" encoding="UTF-8"?>
<!DOCTYPE svg PUBLIC "-//W3C//DTD SVG 1.1//EN" "http://www.w3.org/Graphics/SVG/1.1/DTD/svg11.dtd">
<!-- Creator: CorelDRAW 2021 (64-Bit) -->
<svg xmlns="http://www.w3.org/2000/svg" xml:space="preserve" width="0.213457in" height="0.213457in" version="1.1" style="shape-rendering:geometricPrecision; text-rendering:geometricPrecision; image-rendering:optimizeQuality; fill-rule:evenodd; clip-rule:evenodd"
viewBox="0 0 124.66 124.66"
 xmlns:xlink="http://www.w3.org/1999/xlink"
 xmlns:xodm="http://www.corel.com/coreldraw/odm/2003">
 <defs>
  <style type="text/css">
   <![CDATA[
    .fil0 {fill:#583B26;fill-rule:nonzero}
   ]]>
  </style>
 </defs>
 <g id="Layer_x0020_1">
  <metadata id="CorelCorpID_0Corel-Layer"/>
  <path class="fil0" d="M62.33 0c17.17,0 32.75,6.98 44.04,18.26l0.05 0.05c11.27,11.29 18.24,26.86 18.24,44.02 0,17.17 -6.98,32.75 -18.26,44.04l-0.05 0.05c-11.29,11.27 -26.86,18.24 -44.02,18.24 -17.18,0 -32.76,-6.98 -44.06,-18.27 -11.29,-11.26 -18.27,-26.85 -18.27,-44.06 0,-17.21 6.98,-32.79 18.26,-44.07l0.47 -0.43c11.26,-11.02 26.65,-17.82 43.6,-17.82zm32.6 29.7c-8.32,-8.32 -19.85,-13.47 -32.6,-13.47 -12.57,0 -23.94,5 -32.24,13.11l-0.37 0.39c-8.34,8.34 -13.5,19.87 -13.5,32.6 0,12.73 5.16,24.26 13.5,32.6l0 0.03c8.32,8.32 19.85,13.47 32.6,13.47 12.75,0 24.28,-5.15 32.6,-13.47l0.03 -0.03c8.32,-8.32 13.47,-19.85 13.47,-32.6 0,-12.75 -5.15,-24.28 -13.47,-32.6l-0.03 -0.03z"/>
 </g>
</svg>
