<?xml version="1.0" encoding="UTF-8"?>
<!DOCTYPE svg PUBLIC "-//W3C//DTD SVG 1.1//EN" "http://www.w3.org/Graphics/SVG/1.1/DTD/svg11.dtd">
<!-- Creator: CorelDRAW 2021 (64-Bit) -->
<svg xmlns="http://www.w3.org/2000/svg" xml:space="preserve" width="0.209807in" height="0.227154in" version="1.1" style="shape-rendering:geometricPrecision; text-rendering:geometricPrecision; image-rendering:optimizeQuality; fill-rule:evenodd; clip-rule:evenodd"
viewBox="0 0 33.53 36.31"
 xmlns:xlink="http://www.w3.org/1999/xlink"
 xmlns:xodm="http://www.corel.com/coreldraw/odm/2003">
 <defs>
  <style type="text/css">
   <![CDATA[
    .fil0 {fill:#905124;fill-rule:nonzero}
   ]]>
  </style>
 </defs>
 <g id="Layer_x0020_1">
  <metadata id="CorelCorpID_0Corel-Layer"/>
  <path class="fil0" d="M30.7 0.09c1.17,-0.34 2.4,0.33 2.75,1.5 0.34,1.17 -0.33,2.4 -1.5,2.75l-10.22 3.03 3.37 9.35c0.41,1.15 -0.19,2.42 -1.34,2.83l-0.17 0.05 -9.51 2.57 3.43 7.8c0.49,1.12 -0.02,2.43 -1.14,2.92 -0.17,0.07 -0.33,0.12 -0.5,0.15l-13.12 3.2c-1.19,0.29 -2.38,-0.44 -2.67,-1.63 -0.29,-1.19 0.44,-2.38 1.63,-2.67l10.68 -2.61 -3.39 -7.71c-0.05,-0.11 -0.09,-0.23 -0.13,-0.35 -0.32,-1.18 0.39,-2.4 1.57,-2.71l9.69 -2.61 -3.39 -9.41c-0.34,-1.17 0.33,-2.4 1.5,-2.75l12.47 -3.7z"/>
 </g>
</svg>
