<?xml version="1.0" encoding="UTF-8"?>
<!DOCTYPE svg PUBLIC "-//W3C//DTD SVG 1.1//EN" "http://www.w3.org/Graphics/SVG/1.1/DTD/svg11.dtd">
<!-- Creator: CorelDRAW 2021 (64-Bit) -->
<svg xmlns="http://www.w3.org/2000/svg" xml:space="preserve" width="0.3in" height="0.3in" version="1.1" style="shape-rendering:geometricPrecision; text-rendering:geometricPrecision; image-rendering:optimizeQuality; fill-rule:evenodd; clip-rule:evenodd"
viewBox="0 0 281.03 281.03"
 xmlns:xlink="http://www.w3.org/1999/xlink"
 xmlns:xodm="http://www.corel.com/coreldraw/odm/2003">
 <defs>
  <style type="text/css">
   <![CDATA[
    .fil0 {fill:gray}
   ]]>
  </style>
 </defs>
 <g id="Layer_x0020_1">
  <metadata id="CorelCorpID_0Corel-Layer"/>
  <path class="fil0" d="M140.51 0c77.6,0 140.51,63.23 140.51,141.23 0,68.41 -48.4,125.46 -112.67,138.45l0 -111.13 31.91 0 4.23 -39.27 -36.14 0 0.06 -19.65c0,-10.24 0.99,-15.73 15.91,-15.73l19.93 0 0 -39.26 -31.9 0c-38.32,0 -51.81,19.04 -51.81,51.07l0 23.56 -23.9 0 0 39.27 23.9 0 0 112.49c-68.15,-9.74 -120.55,-68.62 -120.55,-139.8 0,-78 62.91,-141.23 140.51,-141.23z"/>
 </g>
</svg>
