<?xml version="1.0" encoding="UTF-8"?>
<!DOCTYPE svg PUBLIC "-//W3C//DTD SVG 1.1//EN" "http://www.w3.org/Graphics/SVG/1.1/DTD/svg11.dtd">
<!-- Creator: CorelDRAW 2021 (64-Bit) -->
<svg xmlns="http://www.w3.org/2000/svg" xml:space="preserve" width="0.3in" height="0.300004in" version="1.1" style="shape-rendering:geometricPrecision; text-rendering:geometricPrecision; image-rendering:optimizeQuality; fill-rule:evenodd; clip-rule:evenodd"
viewBox="0 0 58.81 58.81"
 xmlns:xlink="http://www.w3.org/1999/xlink"
 xmlns:xodm="http://www.corel.com/coreldraw/odm/2003">
 <defs>
  <style type="text/css">
   <![CDATA[
    .fil0 {fill:gray}
   ]]>
  </style>
 </defs>
 <g id="Layer_x0020_1">
  <metadata id="CorelCorpID_0Corel-Layer"/>
  <path class="fil0" d="M13.35 7.19c-3.4,0 -6.16,2.76 -6.16,6.16l0 32.11c0,3.4 2.76,6.16 6.16,6.16l32.11 0c3.4,0 6.16,-2.76 6.16,-6.16l0 -32.11c0,-3.4 -2.76,-6.16 -6.16,-6.16l-32.11 0zm33.48 7.24c0,1.82 -1.47,3.3 -3.29,3.3 -1.82,0 -3.3,-1.48 -3.3,-3.3 0,-1.82 1.48,-3.29 3.3,-3.29 1.82,-0 3.29,1.47 3.29,3.29zm-17.42 7.74c-3.99,0 -7.24,3.25 -7.24,7.24 0,3.99 3.25,7.24 7.24,7.24 3.99,0 7.24,-3.25 7.24,-7.24 0,-3.99 -3.24,-7.24 -7.24,-7.24zm0 21.67c-7.96,0 -14.43,-6.47 -14.43,-14.43 0,-7.96 6.47,-14.43 14.43,-14.43 7.95,0 14.43,6.47 14.43,14.43 0,7.96 -6.47,14.43 -14.43,14.43zm16.06 14.98l-32.11 0c-7.36,0 -13.35,-5.99 -13.35,-13.35l0 -32.11c0,-7.36 5.99,-13.35 13.35,-13.35l32.11 0c7.36,0 13.35,5.99 13.35,13.35l0 32.11c0,7.36 -5.99,13.35 -13.35,13.35z"/>
 </g>
</svg>
