<?xml version="1.0" encoding="UTF-8"?>
<!DOCTYPE svg PUBLIC "-//W3C//DTD SVG 1.1//EN" "http://www.w3.org/Graphics/SVG/1.1/DTD/svg11.dtd">
<!-- Creator: CorelDRAW 2021 (64-Bit) -->
<svg xmlns="http://www.w3.org/2000/svg" xml:space="preserve" width="0.3in" height="0.300008in" version="1.1" style="shape-rendering:geometricPrecision; text-rendering:geometricPrecision; image-rendering:optimizeQuality; fill-rule:evenodd; clip-rule:evenodd"
viewBox="0 0 83.11 83.11"
 xmlns:xlink="http://www.w3.org/1999/xlink"
 xmlns:xodm="http://www.corel.com/coreldraw/odm/2003">
 <defs>
  <style type="text/css">
   <![CDATA[
    .fil0 {fill:gray}
   ]]>
  </style>
 </defs>
 <g id="Layer_x0020_1">
  <metadata id="CorelCorpID_0Corel-Layer"/>
  <path class="fil0" d="M83.11 41.56c0,22.95 -18.6,41.56 -41.56,41.56 -4.81,0 -9.44,-0.82 -13.74,-2.33 7.85,-0.01 14.23,-6.83 14.23,-15.22l0 -6.08 6.73 -1.16c3.43,-0.59 6.53,-1.81 9.22,-3.63 5.02,-3.4 8.19,-8.41 8.69,-13.75 0.47,-4.99 -1.39,-9.85 -5.24,-13.69 -1.9,-1.89 -4.21,-3.48 -6.86,-4.71 -8.43,-3.9 -18.92,-3.41 -26.73,1.25l-0.96 0.57c-5.62,3.36 -9.23,8.54 -9.9,14.23 -0.64,5.41 1.35,10.66 5.59,14.81l1.23 1.2c1.49,1.45 3.87,1.42 5.31,-0.07 1.45,-1.48 1.42,-3.86 -0.06,-5.31l-1.23 -1.2c-2.54,-2.48 -3.74,-5.51 -3.38,-8.55 0.4,-3.4 2.64,-6.48 6.29,-8.66l0.96 -0.57c5.65,-3.37 13.57,-3.73 19.72,-0.88 1.86,0.86 3.45,1.94 4.72,3.21 2.26,2.26 3.32,4.9 3.06,7.66 -0.29,3.1 -2.27,6.1 -5.43,8.24 -1.8,1.22 -3.91,2.04 -6.28,2.45l-5.45 0.94 0 -17.03c0,-2.07 -1.68,-3.76 -3.76,-3.76 -2.08,0 -3.76,1.68 -3.76,3.76l0 30.74c0,4.25 -3.02,7.71 -6.72,7.71 -2.07,0 -3.76,1.68 -3.76,3.76 0,1.1 0.47,2.08 1.22,2.77 -14.86,-6.33 -25.27,-21.07 -25.27,-38.24 0,-22.95 18.6,-41.56 41.56,-41.56 22.95,0 41.56,18.61 41.56,41.56z"/>
 </g>
</svg>
