<?xml version="1.0" encoding="UTF-8"?>
<!DOCTYPE svg PUBLIC "-//W3C//DTD SVG 1.1//EN" "http://www.w3.org/Graphics/SVG/1.1/DTD/svg11.dtd">
<!-- Creator: CorelDRAW 2021 (64-Bit) -->
<svg xmlns="http://www.w3.org/2000/svg" xml:space="preserve" width="0.3in" height="0.251035in" version="1.1" style="shape-rendering:geometricPrecision; text-rendering:geometricPrecision; image-rendering:optimizeQuality; fill-rule:evenodd; clip-rule:evenodd"
viewBox="0 0 144.52 120.94"
 xmlns:xlink="http://www.w3.org/1999/xlink"
 xmlns:xodm="http://www.corel.com/coreldraw/odm/2003">
 <defs>
  <style type="text/css">
   <![CDATA[
    .fil0 {fill:gray}
   ]]>
  </style>
 </defs>
 <g id="Layer_x0020_1">
  <metadata id="CorelCorpID_0Corel-Layer"/>
  <path class="fil0" d="M70.14 36.53c-16.56,0.52 -38.59,-9.14 -49.62,-19.23 -2.66,-2.43 -9.1,-9.83 -12.35,-10.95 -1.72,3.11 -2.98,4.42 -3.72,9.21 -2.72,17.63 8.58,24.47 9.8,29.26 -5.56,0.76 -5.69,-0.93 -9.98,-2.19 -0.9,8.5 2.53,14.42 6.21,19.11 4.05,5.16 12.1,8.52 14.61,11.04l-9.4 0.43c-1.24,6.29 5.48,12.16 8.76,14.32 4.88,3.22 10.61,5.52 15.97,8.03 -1.18,1.35 -2.22,1.72 -3.77,2.66 -14.4,8.71 -20.51,7.09 -36.65,8.93 1.96,4.48 15.33,8.58 21.61,10.47 27.2,8.2 56.94,0.46 77.28,-15.69 21.07,-16.72 30.8,-37.51 32.59,-66.11 0.79,-12.68 10.31,-9.41 13.04,-20.2 -4.41,0.56 -6.92,2 -11.68,1.97 2.14,-4.53 7.62,-5.95 8.77,-14.56 -9.54,1.7 -12.48,9.38 -22.62,2.91 -21.48,-13.71 -43.22,-1.83 -47.69,16.58 -1.19,4.9 -0.32,9.91 -1.17,14.01z"/>
 </g>
</svg>
