<?xml version="1.0" encoding="UTF-8"?>
<!DOCTYPE svg PUBLIC "-//W3C//DTD SVG 1.1//EN" "http://www.w3.org/Graphics/SVG/1.1/DTD/svg11.dtd">
<!-- Creator: Olajide Olamilekan  -->
<svg xmlns="http://www.w3.org/2000/svg" xml:space="preserve" width="0.3in" height="0.189839in" version="1.1" style="shape-rendering:geometricPrecision; text-rendering:geometricPrecision; image-rendering:optimizeQuality; fill-rule:evenodd; clip-rule:evenodd"
viewBox="0 0 43.72 27.67"
 xmlns:xlink="http://www.w3.org/1999/xlink"
 xmlns:xodm="http://www.corel.com/coreldraw/odm/2003">
 <defs>
  <style type="text/css">
   <![CDATA[
    .fil0 {fill:gray}
   ]]>
  </style>
 </defs>
 <g id="Layer_x0020_1">
  <metadata id="CorelCorpID_0Corel-Layer"/>
  <path class="fil0" d="M9.39 0l24.94 0c5.16,0 9.39,4.22 9.39,9.39l0 8.89c0,5.16 -4.22,9.39 -9.39,9.39l-24.94 0c-5.16,0 -9.39,-4.22 -9.39,-9.39l0 -8.89c0,-5.16 4.22,-9.39 9.39,-9.39zm8.92 9.28l7.76 3.68c0.68,0.32 0.68,1.41 0,1.73l-7.76 3.68c-0.55,0.26 -1.17,-0.19 -1.17,-0.87l0 -7.37c0,-0.67 0.61,-1.13 1.17,-0.87z"/>
 </g>
</svg>
